<?xml version="1.0" encoding="UTF-8" standalone="no"?>
<svg
   xmlns:dc="http://purl.org/dc/elements/1.1/"
   xmlns:cc="http://creativecommons.org/ns#"
   xmlns:rdf="http://www.w3.org/1999/02/22-rdf-syntax-ns#"
   xmlns:svg="http://www.w3.org/2000/svg"
   xmlns="http://www.w3.org/2000/svg"
   xmlns:sodipodi="http://sodipodi.sourceforge.net/DTD/sodipodi-0.dtd"
   xmlns:inkscape="http://www.inkscape.org/namespaces/inkscape"
   width="48.153648mm"
   height="7.1122274mm"
   viewBox="0 0 48.153648 7.1122274"
   version="1.1"
   id="svg8"
   sodipodi:docname="BaraRent-logga.svg"
   inkscape:version="1.0.2 (e86c8708, 2021-01-15)">
  <defs
     id="defs2" />
  <sodipodi:namedview
     id="base"
     pagecolor="#ffffff"
     bordercolor="#666666"
     borderopacity="1.0"
     inkscape:pageopacity="0.0"
     inkscape:pageshadow="2"
     inkscape:zoom="0.32240965"
     inkscape:cx="350.54333"
     inkscape:cy="203.32308"
     inkscape:document-units="mm"
     inkscape:current-layer="layer1"
     inkscape:document-rotation="0"
     showgrid="false"
     inkscape:window-width="1252"
     inkscape:window-height="943"
     inkscape:window-x="0"
     inkscape:window-y="23"
     inkscape:window-maximized="0" />
  <metadata
     id="metadata5">
    <rdf:RDF>
      <cc:Work
         rdf:about="">
        <dc:format>image/svg+xml</dc:format>
        <dc:type
           rdf:resource="http://purl.org/dc/dcmitype/StillImage" />
        <dc:title></dc:title>
      </cc:Work>
    </rdf:RDF>
  </metadata>
  <g
     inkscape:label="Lager 1"
     inkscape:groupmode="layer"
     id="layer1"
     transform="translate(-26.400972,-35.34823)">
    <path
       id="text12"
       style="font-weight:900;font-size:10.5833px;line-height:1.25;font-family:'Cera Pro';-inkscape-font-specification:'Cera Pro Heavy';stroke-width:0.999999"
       d="M 99.783203,133.59961 V 160 h 12.320317 c 5.07998,0 8.91992,-3.27986 8.91992,-7.83984 0,-3.03999 -1.6404,-5.20032 -4.40039,-6.32032 1.07999,-1.19999 1.59961,-2.67945 1.59961,-4.43945 0,-4.59998 -3.83994,-7.80078 -8.91993,-7.80078 z m 96.249997,0 V 160 h 6.87891 v -8.19922 h 2.83984 L 211.71289,160 h 7.67969 l -6.96094,-9.80078 c 2.59999,-1.6 4.16016,-4.27954 4.16016,-7.51953 0,-5.47999 -4.31924,-9.08008 -10.19922,-9.08008 z m 72.90821,1.59961 V 140 h -3.03907 v 5.75977 h 3.03907 v 6.59961 c 0,5.39997 3.1608,8.12109 8.80078,8.12109 1.35999,0 2.71906,-0.16047 4.03906,-0.48047 v -5.75977 l -2.51953,0.0801 c -2.51999,0 -3.43945,-0.72063 -3.43945,-2.64062 v -5.91992 h 5.35937 V 140 h -5.35937 v -4.80078 z m -162.5586,4.20117 h 2.48047 c 1.64,0 2.63867,0.92032 2.63867,2.32031 0,1.4 -0.99867,2.32032 -2.63867,2.32032 h -2.48047 z m 26.72266,0.11914 c -3.63999,0 -6.36103,1.28001 -9.04102,4 l 3.19922,4.36133 c 1.92,-1.72 3.20001,-2.44141 5,-2.44141 2.08,0 3.04102,1.00055 3.04102,2.56055 v 0.32031 h -4.19922 c -4.83999,0 -7.83984,2.239 -7.83985,5.95899 0,3.35999 2.51893,6.20117 6.87891,6.20117 2.35999,0 4.27977,-0.72111 5.75977,-2.12109 V 160 h 6.28125 v -11.59961 c 0,-5.75998 -3.4801,-8.88086 -9.08008,-8.88086 z m 37.96875,0 c -3.63999,0 -6.36103,1.28001 -9.04102,4 l 3.19922,4.36133 c 1.92,-1.72 3.20001,-2.44141 5,-2.44141 2.08,0 3.04102,1.00055 3.04102,2.56055 v 0.32031 h -4.19922 c -4.83999,0 -7.8418,2.239 -7.8418,5.95899 0,3.35999 2.52088,6.20117 6.88086,6.20117 2.35999,0 4.27977,-0.72111 5.75977,-2.12109 V 160 h 6.27929 v -11.59961 c 0,-5.75998 -3.47814,-8.88086 -9.07812,-8.88086 z m 59.70703,0 c -5.95998,0 -10.67969,4.60049 -10.67969,10.48047 0,5.91998 4.72026,10.48047 11.24024,10.48047 2.91999,0 5.59899,-0.87969 7.95898,-2.67969 l -2.48047,-4.68164 c -1.71999,1.04 -3.43828,1.56055 -5.23828,1.56055 -2.23999,0 -3.72047,-0.7593 -4.48047,-2.2793 h 12.79883 c 0.28,-1.08 0.44141,-2.20039 0.44141,-3.40039 0,-5.15998 -3.80057,-9.48047 -9.56055,-9.48047 z m 24.97461,0 c -2.27999,0 -4.16063,0.72111 -5.64063,2.12109 V 140 h -6.27929 v 20 h 6.8789 v -11.32031 c 0,-1.76 1.16087,-2.95899 2.88086,-2.95899 1.72,0 2.91993,1.19899 2.91992,2.95899 V 160 h 6.87891 v -12.32031 c 0,-4.95999 -2.99869,-8.16016 -7.63867,-8.16016 z m -52.84375,0.0801 h 3.51953 c 1.91999,0 3.16016,1.20008 3.16016,3.08008 0,1.87999 -1.24017,3.12109 -3.16016,3.12109 h -3.51953 z m -45.09961,0.0801 c -2.03999,0 -3.80102,0.87946 -5.04102,2.43945 V 140 h -6.27929 v 20 h 6.8789 v -9.11914 c 0,-3.35999 1.60173,-4.80078 4.76172,-4.80078 h 1.63867 V 140 c -0.59999,-0.2 -1.23898,-0.32031 -1.95898,-0.32031 z m 72.68945,5.24023 c 1.8,0 3.27836,1.20001 3.31836,3 h -6.95898 c 0.52,-1.91999 1.92063,-3 3.64062,-3 z m -124.11914,4.64063 h 5.2793 c 1.63999,0 2.64062,0.76031 2.64062,2.32031 0,1.55999 -1.00063,2.31836 -2.64062,2.31836 h -5.2793 z m 25.68164,2.95898 h 3.24024 v 0.16016 c 0,1.79999 -1.28102,2.91992 -3.04102,2.91992 -1.27999,0 -2.03906,-0.60055 -2.03906,-1.56055 0,-0.95999 0.67985,-1.51953 1.83984,-1.51953 z m 37.96875,0 h 3.24024 v 0.16016 c 0,1.79999 -1.28102,2.91992 -3.04102,2.91992 -1.27999,0 -2.03906,-0.60055 -2.03906,-1.56055 0,-0.95999 0.67985,-1.51953 1.83984,-1.51953 z"
       transform="scale(0.26458333)" />
  </g>
</svg>
